<?xml version="1.0" encoding="utf-8"?>
<!-- Generator: Adobe Illustrator 13.0.1, SVG Export Plug-In . SVG Version: 6.00 Build 14948)  -->
<!DOCTYPE svg PUBLIC "-//W3C//DTD SVG 1.1//EN" "http://www.w3.org/Graphics/SVG/1.1/DTD/svg11.dtd">
<svg version="1.1" id="Layer_2" xmlns="http://www.w3.org/2000/svg" xmlns:xlink="http://www.w3.org/1999/xlink" x="0px" y="0px"
	 width="382.05px" height="788.488px" viewBox="0 0 382.05 788.488" enable-background="new 0 0 382.05 788.488"
	 xml:space="preserve">
<g>
	<g>
		<g>
			<g>
				<path d="M191.469,191.087c-7.853,0-16.289-1.188-25.109-3.529v-44.161v-0.531l-0.153-0.513
					c-0.143-0.487-14.093-47.672-12.735-87.982h1.498c0.047,40.458,5.75,53.268,7.499,56.234l0.031,0.057l0.047,0.07
					c1.346,2.104,3.64,3.357,6.14,3.357c1.393,0,2.752-0.398,3.928-1.155c3.342-2.147,4.342-6.573,2.278-9.936
					c-0.526-1.126-5.356-12.453-5.354-48.632h58.354c-0.085,12.329-1.389,54.241-14.471,87.291l-0.258,0.645v0.695v44.264
					C210.029,188.613,202.732,191.087,191.469,191.087L191.469,191.087z"/>
			</g>
			<g>
				<path d="M231.52,50.73c0,0,1.192,52.103-14.716,92.272v46.537c0,0-8.526,5.19-25.338,5.19c-7.806,0-17.4-1.12-28.752-4.401
					v-46.93c0,0-15.115-50.512-12.729-92.67h8.636c-0.01,1.161-0.014,2.305-0.014,3.424c0.029,43.009,6.4,53.595,7.002,54.619
					c0.696,1.088,1.872,1.678,3.072,1.678c0.674,0,1.356-0.188,1.963-0.579c1.694-1.091,2.183-3.345,1.099-5.031h-0.005
					c-0.531-0.964-5.869-12.254-5.847-50.687c0-1.121,0.003-2.263,0.013-3.424L231.52,50.73 M224.198,58.014h-51.002
					c0.295,31.376,4.382,42.015,4.931,43.301c2.92,5.014,1.392,11.512-3.537,14.684c-1.77,1.138-3.81,1.735-5.903,1.735
					c-1.796,0-3.521-0.431-5.054-1.23c3.04,14.595,5.997,24.587,6.064,24.808l0.305,1.022v1.064v41.325
					c7.533,1.807,14.734,2.722,21.471,2.722c8.506,0,14.554-1.481,18.054-2.679v-41.764v-1.39l0.508-1.292
					C221.814,110.572,223.87,73.361,224.198,58.014L224.198,58.014z"/>
			</g>
		</g>
		<g>
			<path d="M95.744,244.477c1.347,0,1.963,1.345,1.963,2.634c0,1.458-0.673,2.802-1.963,2.802h-8.627v33.567
				c0,1.288-1.514,1.961-2.97,1.961c-1.513,0-2.969-0.674-2.969-1.961v-33.567h-8.687c-1.233,0-1.96-1.288-1.96-2.747
				c0-1.288,0.615-2.689,1.96-2.689H95.744L95.744,244.477z"/>
			<path d="M109.25,262.577h8.629c1.233,0,1.96,1.118,1.96,2.409c0,1.063-0.614,2.297-1.96,2.297h-8.629v12.886h16.643
				c1.234,0,1.963,1.234,1.963,2.691c0,1.233-0.619,2.577-1.963,2.577h-19.948c-1.289,0-2.635-0.674-2.635-1.962v-37.039
				c0-1.292,1.346-1.962,2.635-1.962h19.948c1.344,0,1.963,1.345,1.963,2.579c0,1.456-0.729,2.689-1.963,2.689H109.25V262.577
				L109.25,262.577z"/>
			<path d="M130.824,282.974c0-0.168,0-0.336,0.057-0.503l11.151-36.311c0.448-1.345,2.071-2.018,3.754-2.018
				c1.684,0,3.363,0.673,3.812,2.018l11.095,36.311c0.056,0.167,0.113,0.336,0.113,0.503c0,1.401-2.074,2.467-3.757,2.467
				c-0.951,0-1.737-0.336-2.015-1.233l-2.297-7.957h-13.839l-2.299,7.957c-0.279,0.896-1.066,1.233-2.074,1.233
				C132.898,285.441,130.824,284.43,130.824,282.974z M151.391,271.487l-5.605-19.222l-5.603,19.222H151.391z"/>
			<path d="M184.003,270.476c-0.618,1.011-1.402,1.346-2.186,1.346c-0.729,0-1.515-0.334-2.016-1.346l-7.51-14.231v27.231
				c0,1.288-1.458,1.962-2.969,1.962c-1.457,0-2.97-0.674-2.97-1.962v-36.031c0-2.185,1.458-2.97,2.97-2.97
				c2.131,0,3.307,0.728,4.707,3.364l7.845,14.848l7.958-14.848c1.4-2.636,2.52-3.364,4.648-3.364c1.569,0,2.97,0.786,2.97,2.97
				v36.031c0,1.288-1.459,1.962-2.97,1.962c-1.457,0-2.969-0.674-2.969-1.962V256.58L184.003,270.476z"/>
			<path d="M218.301,246.381c0-1.007,0.785-1.904,1.964-1.904h10.646c7.063,0,12.888,2.747,12.888,11.433
				c0,6.667-3.415,9.974-7.899,11.095l7.843,14.739c0.167,0.279,0.226,0.614,0.226,0.839c0,1.514-1.904,3.026-3.587,3.026
				c-1.008,0-1.796-0.672-2.355-1.738l-8.178-16.027h-5.659v15.637c0,1.287-1.459,1.961-2.968,1.961
				c-1.461,0-2.914-0.674-2.914-1.961L218.301,246.381L218.301,246.381z M224.184,249.744v13.335h6.725
				c4.204,0,6.948-1.792,6.948-6.667c0-4.875-2.744-6.668-6.948-6.668H224.184z"/>
			<path d="M256.687,262.577h8.627c1.234,0,1.961,1.118,1.961,2.409c0,1.063-0.612,2.297-1.961,2.297h-8.627v12.886h16.641
				c1.234,0,1.961,1.234,1.961,2.691c0,1.233-0.616,2.577-1.961,2.577h-19.95c-1.287,0-2.634-0.674-2.634-1.962v-37.039
				c0-1.292,1.35-1.962,2.634-1.962h19.95c1.345,0,1.961,1.345,1.961,2.579c0,1.456-0.724,2.689-1.961,2.689h-16.641V262.577z"/>
			<path d="M293.727,244.477c7.118,0,12.604,3.416,12.604,12.497v15.97c0,9.076-5.486,12.496-12.604,12.496h-9.921
				c-1.566,0-2.63-0.898-2.63-1.905v-37.153c0-1.007,1.063-1.904,2.63-1.904H293.727z M287.118,249.744v30.427h6.609
				c4.202,0,6.669-2.296,6.669-7.227v-15.97c0-4.931-2.462-7.229-6.669-7.229H287.118z"/>
		</g>
		<g>
			<path d="M73.584,302.496h24.469c28.522,0,30.859,11.067,30.859,28.678c0,12.311-4.207,22.285-15.117,24.936
				c13.87,2.961,18.701,12.935,18.701,26.96c0,19.949-0.467,35.535-28.989,35.535H73.584V302.496L73.584,302.496z M88.237,352.058
				h11.687c12.47,0,13.873-8.104,13.873-19.638c0-13.559-2.495-18.079-15.274-18.079H88.237V352.058z M88.237,407.229h11.221
				c17.612,0,18.078-8.26,18.078-23.533c0-13.404-2.339-20.573-15.741-20.573h-13.56L88.237,407.229L88.237,407.229z"/>
			<path d="M186.411,302.496v12.157h-29.145v36.626h24.469l-1.092,12.313h-23.377v43.171h29.923v11.846h-45.353V302.498
				L186.411,302.496L186.411,302.496z"/>
			<path d="M241.417,302.496v12.157h-29.144v36.626h24.468l-1.092,12.313h-23.376v43.171h29.924v11.846h-45.354V302.498
				L241.417,302.496L241.417,302.496z"/>
			<path d="M289.88,418.608l-11.067-52.053h-11.532v52.053h-15.429V302.496h24.623c25.871,0,29.613,9.039,29.613,29.769
				c0,17.455-2.339,29.299-13.248,32.417l14.18,53.923L289.88,418.608L289.88,418.608z M278.503,354.708
				c11.688,0,13.091-5.456,13.091-21.821c0-14.182-1.093-19.014-14.185-19.014h-10.129v40.833L278.503,354.708L278.503,354.708z"/>
			<path d="M87.016,480.175v95.337H73.672V444.708h20.719l22.648,103.767l22.999-103.767h19.488v130.804h-14.395v-95.337
				l-20.192,95.337h-16.856L87.016,480.175z"/>
			<path d="M190.259,444.708v130.804h-17.385V444.708H190.259z"/>
			<path d="M221.863,444.708v117.459h26.861v13.344h-44.42V444.706L221.863,444.708L221.863,444.708z"/>
			<path d="M308.246,444.708v13.696h-32.83v41.259h27.565l-1.229,13.868h-26.336v48.636h33.709v13.344h-51.093V444.706
				L308.246,444.708L308.246,444.708z"/>
		</g>
		<g>
			<path d="M360.701,706.385c-5.835-2.014-14.699-8.236-21.761-13.895c-4.548-3.634-8.414-7.017-10.618-8.984
				c1.753-3.369,2.589-6.944,2.578-10.512c-0.267-16.358-15.479-31.786-30.033-43.991c-10.513-8.68-20.924-15.457-26.029-18.626
				l5.78-6.772c1.176-1.374,1.009-3.435-0.368-4.61c-1.371-1.174-3.434-1.009-4.605,0.361l-6.51,7.624l-0.012-0.015l-0.186,0.234
				L166.09,727.623c-1.173,1.376-1.011,3.436,0.361,4.607c0.617,0.526,1.371,0.785,2.122,0.785c0.924,0,1.84-0.391,2.485-1.146
				l48.626-56.925l0.851,0.422c17.5,8.653,29.464,17.188,37.018,23.506c3.781,3.158,6.46,5.763,8.176,7.563
				c0.139,0.142,0.261,0.271,0.388,0.406c-8.913,8.19-11.506,14.226-11.673,14.637l-0.286,0.683l0.036,0.732
				c0.325,3.396,2.222,6.229,4.66,9.837c7.373,10.431,21.192,24.192,21.257,24.274c21.052,21.07,35.711,24.532,36.295,24.655
				l3.054,0.683l11.475-42.639l34.946-31.487L360.701,706.385z M227.022,671.311l43.715-55.788
				c4.661,2.865,15.319,9.718,25.971,18.514c14.282,11.622,27.924,27.072,27.66,38.954c-0.019,2.466-0.521,4.805-1.671,7.125
				l-0.164-0.106h-0.008l-35.546,54.729c-0.478-8.184-3.927-18.415-13.531-29.43l-0.145-0.188
				C273.061,704.796,260.292,688.441,227.022,671.311z M264.202,728.96c-1.735-2.359-2.909-4.666-3.315-5.768
				c0.011-0.025,0.023-0.043,0.036-0.064c0.948-1.722,3.601-5.89,9.423-11.291c8.005,10.054,10.145,18.58,10.164,25.026
				c-0.008,3.96-0.815,7.131-1.656,9.405c-1.912-2.038-4.098-4.423-6.303-6.938C269.5,735.847,266.448,732.15,264.202,728.96z
				 M325.126,736.14l-10.26,38.11c-4.974-2.021-15.861-7.604-30.132-21.875c-0.004-0.003-0.336-0.335-0.85-0.858l40.671-62.623
				c5.419,4.834,18.266,15.902,29.137,21.506L325.126,736.14z"/>
		</g>
		<g>
			<path d="M216.286,727.618L113.445,607.206l-0.191-0.245l-0.011,0.015l-6.503-7.615c-1.176-1.379-3.237-1.539-4.614-0.372
				c-1.369,1.173-1.529,3.24-0.36,4.608l5.787,6.775c-5.101,3.169-15.521,9.945-26.044,18.622
				c-14.548,12.208-29.761,27.636-30.025,43.991c-0.013,3.564,0.806,7.145,2.577,10.522c-2.203,1.975-6.076,5.355-10.621,8.983
				c-7.062,5.653-15.921,11.876-21.754,13.89l-5.186,1.834l34.946,31.487l11.476,42.633l3.056-0.679
				c0.58-0.121,15.243-3.586,36.303-24.661c0.022-0.03,6.198-6.204,12.478-13.357c3.138-3.589,6.299-7.414,8.765-10.914
				c2.439-3.601,4.338-6.445,4.659-9.838l0.037-0.742l-0.281-0.673c-0.163-0.411-2.766-6.444-11.672-14.646
				c0.121-0.129,0.25-0.261,0.385-0.4c5.145-5.394,18.938-18.084,45.192-31.068l0.855-0.424l48.614,56.918
				c0.651,0.763,1.568,1.148,2.491,1.148c0.75,0,1.505-0.258,2.124-0.779C217.297,731.051,217.457,728.995,216.286,727.618z
				 M97.652,752.376c-10.126,10.13-18.547,15.878-24.36,19.084c-2.384,1.322-4.332,2.206-5.778,2.79l-10.259-38.11l-28.562-25.736
				c10.873-5.606,23.713-16.675,29.135-21.51l40.67,62.619C97.977,752.046,97.655,752.372,97.652,752.376z M119.583,720.19
				c0.917,1.288,1.52,2.281,1.88,2.932c0.014,0.03,0.026,0.049,0.04,0.078c-0.406,1.102-1.583,3.409-3.323,5.76
				c-3.895,5.549-10.09,12.447-14.662,17.318c-0.837-2.27-1.642-5.481-1.642-9.419c0.022-6.428,2.147-14.951,10.145-25
				C115.621,715.197,118.068,718.092,119.583,720.19z M109.077,705.124l-0.075,0.099c-9.669,11.051-13.125,21.319-13.599,29.52
				l-35.547-54.733l-0.172,0.112c-1.152-2.322-1.658-4.661-1.664-7.132c-0.276-11.873,13.364-27.329,27.659-38.949
				c10.656-8.804,21.324-15.642,25.978-18.51l43.702,55.784C122.086,688.442,109.33,704.792,109.077,705.124z"/>
		</g>
		<g>
			<path d="M188.506,211.073l-0.129-0.007c-0.214-0.062-21.339-0.997-33.478-6.164l0,0c-3.928-1.784-7.91-4.098-8.544-9.112l0,0
				l-0.018-0.152v-51.473l-10.688-53.474l-0.016-0.132c-0.007-0.076-3.147-24.814-3.147-47.396l0,0
				c0-8.483,0.429-16.655,1.707-23.292l0,0c1.402-6.523,3.063-12.105,8.423-14.663l0,0l0.669-0.285h93.309l0.652,0.26
				c2.419,1.209,10.68,6.448,10.711,43.815l0,0c0,10.742-0.698,24.194-2.474,41.088l0,0l-0.021,0.222l-0.033,0.167
				c0,0.008-5.137,23.674-11.852,54.121l0,0v51.167c0.003,0.061,0.005,0.138,0.005,0.229l0,0c0.116,1.874-1.444,6.177-7.597,9.079
				l0,0c-6.148,3.023-16.904,5.596-37.351,6.004l0,0L188.506,211.073L188.506,211.073z M154.318,196.172
				c0.659,0.604,1.884,1.355,3.483,2.045l0,0c3.202,1.393,7.811,2.557,12.429,3.391l0,0c8.759,1.601,17.514,2.133,18.44,2.178l0,0
				c17.259-0.332,26.982-2.362,32.127-4.391l0,0c4.556-1.814,5.344-3.278,5.488-3.617l0,0v-51.981l0.084-0.392
				c6.421-29.071,11.397-52.004,11.891-54.286l0,0c1.739-16.595,2.417-29.748,2.417-40.126l0,0c0-15.972-1.611-25.414-3.266-30.76
				l0,0c-1.122-3.616-2.22-5.309-2.813-6.025l0,0h-89.688c-1.005,0.923-2.729,4.081-3.562,9.034l0,0
				c-1.134,5.851-1.584,13.696-1.577,21.915l0,0c-0.007,20.852,2.778,44.007,3.063,46.301l0,0l10.797,53.969v51.852
				C153.665,195.407,153.797,195.68,154.318,196.172L154.318,196.172z M228.547,195.99l-1.488-0.062l0.2,0.062H228.547
				L228.547,195.99z"/>
		</g>
		<g>
			<path d="M189.015,693.81c-19.397,0-38.106-2.21-55.675-6.308c-0.145-0.033-0.281-0.079-0.425-0.11l-4.937,4.158
				c0.155,0.039,0.308,0.087,0.462,0.125c19.021,4.758,39.391,7.337,60.576,7.337c22.329,0,43.741-2.886,63.637-8.146l-4.689-4.195
				C229.441,691.274,209.629,693.81,189.015,693.81z M4.801,558.598V260.99c0-63.034,59.072-116.101,138.702-131.016l-1.018-5.099
				C60.384,140.254-0.4,195.347-0.4,260.99v297.607c0.002,39.877,22.427,75.875,58.442,101.435c0.318,0.226,0.661,0.435,0.986,0.661
				l2.439-4.655c-0.312-0.219-0.647-0.426-0.958-0.649C26.163,630.815,4.801,596.5,4.801,558.598z M237.812,125.313
				c-0.362,1.655-0.734,3.349-1.116,5.082c78.536,15.462,136.538,68.14,136.538,130.596v297.606c0,37.2-20.576,70.94-53.813,95.41
				l2.926,4.31c34.634-25.447,56.094-60.721,56.094-99.716V260.99C378.44,195.951,318.775,141.271,237.812,125.313z"/>
		</g>
		<g>
			<path d="M225.684,670.722c-12.118,2.161-24.727,3.346-37.697,3.346c-9.883,0-19.552-0.707-28.962-1.979l0.248,0.384l-6.305,3.734
				l-0.386,0.209c11.424,1.854,23.264,2.845,35.408,2.845c14.214,0,28.015-1.355,41.213-3.874l-5.021-3.852L225.684,670.722z
				 M17.658,271.149v277.287c0,37.505,20.585,71.304,53.512,95.16l3.955-3.583C42.991,617.083,22.86,584.52,22.86,548.437V271.149
				c0-58.331,52.524-107.493,123.48-121.572v-5.299C72.407,158.554,17.658,209.933,17.658,271.149z M233.57,145.098v5.329
				c68.954,15.092,119.556,63.479,119.556,120.722v277.287c0,34.946-18.871,66.594-49.249,89.385l3.845,3.645
				c31.238-23.722,50.606-56.633,50.606-93.03V271.149C358.328,211.027,305.504,160.411,233.57,145.098z"/>
		</g>
		<g>
			<path d="M42.744,538.408V281.18c0-52.522,43.757-96.99,103.597-111.305v-5.343C83.533,179.068,37.544,225.771,37.544,281.18
				v257.228c0,35.762,19.159,67.904,49.629,90.114l4.479-3.237C61.681,603.988,42.744,572.942,42.744,538.408z M140.436,648.18
				l4.467,6.546c13.59,3.258,27.968,5.036,42.87,5.036c17.048,0,33.415-2.324,48.692-6.552l5.245-7.008
				c-16.688,5.373-34.879,8.362-53.937,8.362C171.196,654.565,155.28,652.298,140.436,648.18z M233.57,165.582v5.406
				c57.594,15.395,99.242,58.958,99.242,110.192v257.228c0,33.445-17.763,63.615-46.109,84.829l4.123,3.435
				c29.033-22.127,47.186-53.477,47.186-88.264V281.18C338.011,227.057,294.144,181.229,233.57,165.582z"/>
		</g>
	</g>
	<g>
		<g>
			<path d="M129.022,758.556h6.174c0.883,0,1.405,0.798,1.405,1.723c0,0.761-0.441,1.645-1.405,1.645h-6.174v9.22h11.911
				c0.883,0,1.402,0.884,1.402,1.928c0,0.883-0.438,1.843-1.402,1.843h-14.278c-0.922,0-1.885-0.481-1.885-1.403V747
				c0-0.919,0.962-1.402,1.885-1.402h14.278c0.964,0,1.402,0.963,1.402,1.845c0,1.041-0.52,1.927-1.402,1.927h-11.911V758.556z"/>
		</g>
		<g>
			<path d="M154.365,769.825c0-4.211-9.666-1.723-9.666-8.38c0-2.77,1.805-5.774,6.856-5.774c3.008,0,6.017,1.082,6.017,2.364
				c0,0.603-0.602,2.043-1.604,2.043c-0.839,0-2.087-1.16-4.329-1.16c-2.367,0-3.25,1.323-3.25,2.322
				c0,3.528,9.742,1.204,9.742,8.42c0,3.414-2.523,5.576-7.055,5.576c-3.968,0-6.899-1.683-6.899-3.208
				c0-0.723,0.6-1.885,1.441-1.885c1.043,0,1.885,1.844,5.333,1.844C153.603,771.99,154.365,770.909,154.365,769.825z"/>
		</g>
		<g>
			<path d="M165.671,768.661c0,1.926,0.722,2.646,2.812,2.646h1.402c1.203,0,1.805,0.884,1.805,1.81c0,0.917-0.602,1.8-1.805,1.8
				h-1.402c-4.574,0-7.021-1.885-7.021-6.254v-20.095c0-0.797,1.082-1.358,2.086-1.358c1.043,0,2.126,0.562,2.126,1.358v7.343h4.89
				c0.723,0,1.165,0.76,1.165,1.562c0,0.799-0.441,1.561-1.165,1.561h-4.89v9.629L165.671,768.661L165.671,768.661z"/>
		</g>
		<g>
			<path d="M178.583,772.752c0,1.28-1.083,2.407-2.367,2.407c-1.402,0-2.402-1.127-2.402-2.407c0-1.324,1-2.405,2.402-2.405
				C177.5,770.343,178.583,771.428,178.583,772.752z"/>
		</g>
		<g>
			<path d="M197.871,745.602c4.651,0,8.582,3.167,8.582,7.978c0,8.63-12.994,11.435-12.994,16.048v1.521h11.793
				c0.718,0,1.401,0.842,1.401,1.847c0,0.999-0.684,1.921-1.401,1.921H190.97c-0.804,0-1.886-0.562-1.886-1.4v-3.889
				c0-6.501,13.118-9.748,13.118-15.927c0-1.966-1.285-4.209-4.332-4.209c-2.245,0-4.052,1.243-4.052,3.97
				c0,0.8-0.839,1.604-2.243,1.604c-1.124,0-1.925-0.562-1.925-2.369C189.647,748.41,193.496,745.602,197.871,745.602z"/>
		</g>
		<g>
			<path d="M209.82,766.216v-11.673c0-6.496,3.889-8.941,8.982-8.941c5.051,0,9.021,2.445,9.021,8.941v11.673
				c0,6.493-3.968,8.944-9.021,8.944C213.705,775.159,209.82,772.709,209.82,766.216z M223.571,754.543
				c0-3.527-1.804-5.173-4.769-5.173c-3.007,0-4.731,1.646-4.731,5.173v11.673c0,3.526,1.725,5.173,4.731,5.173
				c2.965,0,4.769-1.646,4.769-5.173V754.543z"/>
		</g>
		<g>
			<path d="M233.835,751.214l-1.403,1.767c-0.281,0.277-0.645,0.398-0.882,0.398c-0.845,0-1.447-0.886-1.447-1.724
				c0-0.603,0.322-1.281,0.844-1.645l4.17-4.01c0.281-0.28,0.602-0.442,1.082-0.442c0.884,0,1.887,0.519,1.887,1.402v26.551
				c0,0.921-1.083,1.402-2.124,1.402c-1.085,0-2.126-0.481-2.126-1.402V751.214L233.835,751.214z"/>
		</g>
		<g>
			<path d="M250.521,745.602c4.648,0,8.578,3.167,8.578,7.978c0,8.63-12.99,11.435-12.99,16.048v1.521h11.788
				c0.721,0,1.404,0.842,1.404,1.847c0,0.999-0.684,1.921-1.404,1.921h-14.279c-0.802,0-1.883-0.562-1.883-1.4v-3.889
				c0-6.501,13.114-9.748,13.114-15.927c0-1.966-1.282-4.209-4.328-4.209c-2.246,0-4.052,1.243-4.052,3.97
				c0,0.8-0.845,1.604-2.246,1.604c-1.12,0-1.922-0.562-1.922-2.369C242.295,748.41,246.145,745.602,250.521,745.602z"/>
		</g>
	</g>
</g>
</svg>
